<mxfile host="app.diagrams.net" modified="2021-05-22T12:06:55.380Z" agent="5.0 (X11; Linux x86_64) AppleWebKit/537.36 (KHTML, like Gecko) Chrome/90.0.4430.212 Safari/537.36" etag="TZsuwH3eP_2VUuz3aa7u" version="14.7.0" type="github">
  <diagram id="C5RBs43oDa-KdzZeNtuy" name="Page-1">
    <mxGraphModel dx="6271" dy="2964" grid="1" gridSize="10" guides="1" tooltips="1" connect="1" arrows="1" fold="1" page="1" pageScale="1" pageWidth="827" pageHeight="1169" math="0" shadow="0">
      <root>
        <mxCell id="WIyWlLk6GJQsqaUBKTNV-0" />
        <mxCell id="WIyWlLk6GJQsqaUBKTNV-1" parent="WIyWlLk6GJQsqaUBKTNV-0" />
        <mxCell id="_VDWkb_VNSraSOcVhv75-7" value="(package)&lt;br style=&quot;font-size: 14px;&quot;&gt;client" style="rounded=1;whiteSpace=wrap;html=1;fontSize=14;" parent="WIyWlLk6GJQsqaUBKTNV-1" vertex="1">
          <mxGeometry x="-1490" y="-710" width="120" height="60" as="geometry" />
        </mxCell>
        <mxCell id="_VDWkb_VNSraSOcVhv75-8" value="(package)&lt;br style=&quot;font-size: 14px;&quot;&gt;org.pm" style="rounded=1;whiteSpace=wrap;html=1;fontSize=14;" parent="WIyWlLk6GJQsqaUBKTNV-1" vertex="1">
          <mxGeometry x="-530" y="-195" width="120" height="60" as="geometry" />
        </mxCell>
        <mxCell id="_VDWkb_VNSraSOcVhv75-9" value="(packager)&lt;br style=&quot;font-size: 14px;&quot;&gt;server" style="rounded=1;whiteSpace=wrap;html=1;fontSize=14;" parent="WIyWlLk6GJQsqaUBKTNV-1" vertex="1">
          <mxGeometry x="-1289" y="-609" width="120" height="60" as="geometry" />
        </mxCell>
        <mxCell id="_VDWkb_VNSraSOcVhv75-10" value="(packager)&lt;br style=&quot;font-size: 14px;&quot;&gt;console" style="rounded=1;whiteSpace=wrap;html=1;fontSize=14;" parent="WIyWlLk6GJQsqaUBKTNV-1" vertex="1">
          <mxGeometry x="-1130" y="-609" width="120" height="60" as="geometry" />
        </mxCell>
        <mxCell id="_VDWkb_VNSraSOcVhv75-11" value="(packager)&lt;br style=&quot;font-size: 14px;&quot;&gt;" style="rounded=1;whiteSpace=wrap;html=1;fontSize=14;" parent="WIyWlLk6GJQsqaUBKTNV-1" vertex="1">
          <mxGeometry x="-60" y="-669" width="120" height="60" as="geometry" />
        </mxCell>
        <mxCell id="_VDWkb_VNSraSOcVhv75-12" value="(packager)&lt;br style=&quot;font-size: 14px&quot;&gt;sharedata" style="rounded=1;whiteSpace=wrap;html=1;fontSize=14;" parent="WIyWlLk6GJQsqaUBKTNV-1" vertex="1">
          <mxGeometry x="-947" y="-530" width="120" height="60" as="geometry" />
        </mxCell>
        <mxCell id="_VDWkb_VNSraSOcVhv75-14" value="(packager)&lt;br style=&quot;font-size: 14px;&quot;&gt;player" style="rounded=1;whiteSpace=wrap;html=1;fontSize=14;" parent="WIyWlLk6GJQsqaUBKTNV-1" vertex="1">
          <mxGeometry x="-800" y="-610" width="120" height="60" as="geometry" />
        </mxCell>
        <mxCell id="_VDWkb_VNSraSOcVhv75-15" value="(packager)&lt;br style=&quot;font-size: 14px;&quot;&gt;character&lt;br style=&quot;font-size: 14px;&quot;&gt;" style="rounded=1;whiteSpace=wrap;html=1;fontSize=14;" parent="WIyWlLk6GJQsqaUBKTNV-1" vertex="1">
          <mxGeometry x="-530" y="140" width="120" height="60" as="geometry" />
        </mxCell>
        <mxCell id="_VDWkb_VNSraSOcVhv75-16" value="(packager)&lt;br style=&quot;font-size: 14px;&quot;&gt;logger&lt;br style=&quot;font-size: 14px;&quot;&gt;" style="rounded=1;whiteSpace=wrap;html=1;fontSize=14;" parent="WIyWlLk6GJQsqaUBKTNV-1" vertex="1">
          <mxGeometry x="-480" y="-610" width="120" height="60" as="geometry" />
        </mxCell>
        <mxCell id="_VDWkb_VNSraSOcVhv75-17" value="(packager)&lt;br style=&quot;font-size: 14px;&quot;&gt;chat" style="rounded=1;whiteSpace=wrap;html=1;fontSize=14;" parent="WIyWlLk6GJQsqaUBKTNV-1" vertex="1">
          <mxGeometry x="-300" y="-610" width="120" height="60" as="geometry" />
        </mxCell>
        <mxCell id="_VDWkb_VNSraSOcVhv75-19" value="Character&#xa;&lt;abstract&gt;" style="swimlane;fontStyle=1;childLayout=stackLayout;horizontal=1;startSize=40;horizontalStack=0;resizeParent=1;resizeParentMax=0;resizeLast=0;collapsible=1;marginBottom=0;fontSize=14;" parent="WIyWlLk6GJQsqaUBKTNV-1" vertex="1">
          <mxGeometry x="-585" y="270" width="225" height="170" as="geometry">
            <mxRectangle x="-585" y="270" width="100" height="40" as="alternateBounds" />
          </mxGeometry>
        </mxCell>
        <mxCell id="_VDWkb_VNSraSOcVhv75-75" value="- Team team&#xa;- Action action" style="text;fillColor=none;align=left;verticalAlign=top;spacingLeft=4;spacingRight=4;overflow=hidden;rotatable=0;points=[[0,0.5],[1,0.5]];portConstraint=eastwest;fontSize=14;strokeColor=#000000;" parent="_VDWkb_VNSraSOcVhv75-19" vertex="1">
          <mxGeometry y="40" width="225" height="50" as="geometry" />
        </mxCell>
        <mxCell id="_VDWkb_VNSraSOcVhv75-20" value="+ void action(GameData)" style="text;fillColor=none;align=left;verticalAlign=top;spacingLeft=4;spacingRight=4;overflow=hidden;rotatable=0;points=[[0,0.5],[1,0.5]];portConstraint=eastwest;fontSize=14;" parent="_VDWkb_VNSraSOcVhv75-19" vertex="1">
          <mxGeometry y="90" width="225" height="26" as="geometry" />
        </mxCell>
        <mxCell id="_VDWkb_VNSraSOcVhv75-21" value="+ void vote(VoteData)" style="text;strokeColor=none;fillColor=none;align=left;verticalAlign=top;spacingLeft=4;spacingRight=4;overflow=hidden;rotatable=0;points=[[0,0.5],[1,0.5]];portConstraint=eastwest;fontSize=14;" parent="_VDWkb_VNSraSOcVhv75-19" vertex="1">
          <mxGeometry y="116" width="225" height="28" as="geometry" />
        </mxCell>
        <mxCell id="_VDWkb_VNSraSOcVhv75-46" value="+ Team getTeam()" style="text;strokeColor=none;fillColor=none;align=left;verticalAlign=top;spacingLeft=4;spacingRight=4;overflow=hidden;rotatable=0;points=[[0,0.5],[1,0.5]];portConstraint=eastwest;fontSize=14;" parent="_VDWkb_VNSraSOcVhv75-19" vertex="1">
          <mxGeometry y="144" width="225" height="26" as="geometry" />
        </mxCell>
        <mxCell id="_VDWkb_VNSraSOcVhv75-23" value="" style="endArrow=none;dashed=1;html=1;dashPattern=1 3;strokeWidth=2;entryX=0.5;entryY=1;entryDx=0;entryDy=0;exitX=0.5;exitY=0;exitDx=0;exitDy=0;fontSize=14;" parent="WIyWlLk6GJQsqaUBKTNV-1" source="_VDWkb_VNSraSOcVhv75-19" target="_VDWkb_VNSraSOcVhv75-15" edge="1">
          <mxGeometry width="50" height="50" relative="1" as="geometry">
            <mxPoint x="220" y="300" as="sourcePoint" />
            <mxPoint x="270" y="250" as="targetPoint" />
          </mxGeometry>
        </mxCell>
        <mxCell id="_VDWkb_VNSraSOcVhv75-28" value="(packager)&lt;br style=&quot;font-size: 14px;&quot;&gt;model" style="rounded=1;whiteSpace=wrap;html=1;fontSize=14;" parent="WIyWlLk6GJQsqaUBKTNV-1" vertex="1">
          <mxGeometry x="-530" y="-20" width="120" height="60" as="geometry" />
        </mxCell>
        <mxCell id="_VDWkb_VNSraSOcVhv75-29" value="(packager)&lt;br style=&quot;font-size: 14px;&quot;&gt;view" style="rounded=1;whiteSpace=wrap;html=1;fontSize=14;" parent="WIyWlLk6GJQsqaUBKTNV-1" vertex="1">
          <mxGeometry x="-2270" y="-20" width="120" height="60" as="geometry" />
        </mxCell>
        <mxCell id="_VDWkb_VNSraSOcVhv75-30" value="(packager)&lt;br style=&quot;font-size: 14px;&quot;&gt;controller" style="rounded=1;whiteSpace=wrap;html=1;fontSize=14;" parent="WIyWlLk6GJQsqaUBKTNV-1" vertex="1">
          <mxGeometry x="1080" y="-20" width="120" height="60" as="geometry" />
        </mxCell>
        <mxCell id="_VDWkb_VNSraSOcVhv75-31" value="" style="endArrow=none;dashed=1;html=1;dashPattern=1 3;strokeWidth=2;exitX=0.5;exitY=0;exitDx=0;exitDy=0;entryX=0.5;entryY=1;entryDx=0;entryDy=0;fontSize=14;" parent="WIyWlLk6GJQsqaUBKTNV-1" source="_VDWkb_VNSraSOcVhv75-28" target="_VDWkb_VNSraSOcVhv75-8" edge="1">
          <mxGeometry width="50" height="50" relative="1" as="geometry">
            <mxPoint x="-500" y="-30" as="sourcePoint" />
            <mxPoint x="-450" y="-80" as="targetPoint" />
          </mxGeometry>
        </mxCell>
        <mxCell id="_VDWkb_VNSraSOcVhv75-32" value="" style="endArrow=none;dashed=1;html=1;dashPattern=1 3;strokeWidth=2;exitX=0.5;exitY=0;exitDx=0;exitDy=0;entryX=0.5;entryY=1;entryDx=0;entryDy=0;fontSize=14;" parent="WIyWlLk6GJQsqaUBKTNV-1" source="_VDWkb_VNSraSOcVhv75-15" target="_VDWkb_VNSraSOcVhv75-28" edge="1">
          <mxGeometry width="50" height="50" relative="1" as="geometry">
            <mxPoint x="-180" y="150" as="sourcePoint" />
            <mxPoint x="-130" y="100" as="targetPoint" />
          </mxGeometry>
        </mxCell>
        <mxCell id="_VDWkb_VNSraSOcVhv75-39" value="&lt;hr style=&quot;font-size: 14px;&quot;&gt;" style="text;html=1;align=center;verticalAlign=middle;resizable=0;points=[];autosize=1;strokeColor=none;fontSize=14;" parent="WIyWlLk6GJQsqaUBKTNV-1" vertex="1">
          <mxGeometry x="-630" y="400" width="20" height="20" as="geometry" />
        </mxCell>
        <mxCell id="_VDWkb_VNSraSOcVhv75-50" value="List of characters&#xa;(classes)" style="swimlane;fontStyle=1;childLayout=stackLayout;horizontal=1;startSize=40;fillColor=none;horizontalStack=0;resizeParent=1;resizeParentMax=0;resizeLast=0;collapsible=1;marginBottom=0;fontSize=14;" parent="WIyWlLk6GJQsqaUBKTNV-1" vertex="1">
          <mxGeometry x="-553" y="610" width="140" height="300" as="geometry" />
        </mxCell>
        <mxCell id="_VDWkb_VNSraSOcVhv75-51" value="Godfather" style="text;strokeColor=none;fillColor=none;align=left;verticalAlign=top;spacingLeft=4;spacingRight=4;overflow=hidden;rotatable=0;points=[[0,0.5],[1,0.5]];portConstraint=eastwest;fontSize=14;" parent="_VDWkb_VNSraSOcVhv75-50" vertex="1">
          <mxGeometry y="40" width="140" height="26" as="geometry" />
        </mxCell>
        <mxCell id="_VDWkb_VNSraSOcVhv75-52" value="DoctorLecter" style="text;strokeColor=none;fillColor=none;align=left;verticalAlign=top;spacingLeft=4;spacingRight=4;overflow=hidden;rotatable=0;points=[[0,0.5],[1,0.5]];portConstraint=eastwest;fontSize=14;" parent="_VDWkb_VNSraSOcVhv75-50" vertex="1">
          <mxGeometry y="66" width="140" height="26" as="geometry" />
        </mxCell>
        <mxCell id="_VDWkb_VNSraSOcVhv75-53" value="SimpleMafia" style="text;strokeColor=none;fillColor=none;align=left;verticalAlign=top;spacingLeft=4;spacingRight=4;overflow=hidden;rotatable=0;points=[[0,0.5],[1,0.5]];portConstraint=eastwest;fontSize=14;" parent="_VDWkb_VNSraSOcVhv75-50" vertex="1">
          <mxGeometry y="92" width="140" height="26" as="geometry" />
        </mxCell>
        <mxCell id="_VDWkb_VNSraSOcVhv75-64" value="Mayer" style="text;strokeColor=none;fillColor=none;align=left;verticalAlign=top;spacingLeft=4;spacingRight=4;overflow=hidden;rotatable=0;points=[[0,0.5],[1,0.5]];portConstraint=eastwest;fontSize=14;" parent="_VDWkb_VNSraSOcVhv75-50" vertex="1">
          <mxGeometry y="118" width="140" height="26" as="geometry" />
        </mxCell>
        <mxCell id="_VDWkb_VNSraSOcVhv75-67" value="DoctorCiticen" style="text;strokeColor=none;fillColor=none;align=left;verticalAlign=top;spacingLeft=4;spacingRight=4;overflow=hidden;rotatable=0;points=[[0,0.5],[1,0.5]];portConstraint=eastwest;fontSize=14;" parent="_VDWkb_VNSraSOcVhv75-50" vertex="1">
          <mxGeometry y="144" width="140" height="26" as="geometry" />
        </mxCell>
        <mxCell id="_VDWkb_VNSraSOcVhv75-69" value="Sniper" style="text;strokeColor=none;fillColor=none;align=left;verticalAlign=top;spacingLeft=4;spacingRight=4;overflow=hidden;rotatable=0;points=[[0,0.5],[1,0.5]];portConstraint=eastwest;fontSize=14;" parent="_VDWkb_VNSraSOcVhv75-50" vertex="1">
          <mxGeometry y="170" width="140" height="26" as="geometry" />
        </mxCell>
        <mxCell id="_VDWkb_VNSraSOcVhv75-68" value="Psychologist" style="text;strokeColor=none;fillColor=none;align=left;verticalAlign=top;spacingLeft=4;spacingRight=4;overflow=hidden;rotatable=0;points=[[0,0.5],[1,0.5]];portConstraint=eastwest;fontSize=14;" parent="_VDWkb_VNSraSOcVhv75-50" vertex="1">
          <mxGeometry y="196" width="140" height="26" as="geometry" />
        </mxCell>
        <mxCell id="_VDWkb_VNSraSOcVhv75-66" value="HardLife :)" style="text;strokeColor=none;fillColor=none;align=left;verticalAlign=top;spacingLeft=4;spacingRight=4;overflow=hidden;rotatable=0;points=[[0,0.5],[1,0.5]];portConstraint=eastwest;fontSize=14;" parent="_VDWkb_VNSraSOcVhv75-50" vertex="1">
          <mxGeometry y="222" width="140" height="26" as="geometry" />
        </mxCell>
        <mxCell id="_VDWkb_VNSraSOcVhv75-65" value="Detective" style="text;strokeColor=none;fillColor=none;align=left;verticalAlign=top;spacingLeft=4;spacingRight=4;overflow=hidden;rotatable=0;points=[[0,0.5],[1,0.5]];portConstraint=eastwest;fontSize=14;" parent="_VDWkb_VNSraSOcVhv75-50" vertex="1">
          <mxGeometry y="248" width="140" height="26" as="geometry" />
        </mxCell>
        <mxCell id="_VDWkb_VNSraSOcVhv75-62" value="NormalCitizen&#xa;" style="text;strokeColor=none;fillColor=none;align=left;verticalAlign=top;spacingLeft=4;spacingRight=4;overflow=hidden;rotatable=0;points=[[0,0.5],[1,0.5]];portConstraint=eastwest;fontSize=14;" parent="_VDWkb_VNSraSOcVhv75-50" vertex="1">
          <mxGeometry y="274" width="140" height="26" as="geometry" />
        </mxCell>
        <mxCell id="_VDWkb_VNSraSOcVhv75-55" value="Team&#xa;&lt;enum&gt;" style="swimlane;fontStyle=1;childLayout=stackLayout;horizontal=1;startSize=40;fillColor=none;horizontalStack=0;resizeParent=1;resizeParentMax=0;resizeLast=0;collapsible=1;marginBottom=0;fontSize=14;" parent="WIyWlLk6GJQsqaUBKTNV-1" vertex="1">
          <mxGeometry x="-850" y="270" width="170" height="92" as="geometry" />
        </mxCell>
        <mxCell id="_VDWkb_VNSraSOcVhv75-56" value="Mafia" style="text;strokeColor=none;fillColor=none;align=left;verticalAlign=top;spacingLeft=4;spacingRight=4;overflow=hidden;rotatable=0;points=[[0,0.5],[1,0.5]];portConstraint=eastwest;fontSize=14;" parent="_VDWkb_VNSraSOcVhv75-55" vertex="1">
          <mxGeometry y="40" width="170" height="26" as="geometry" />
        </mxCell>
        <mxCell id="_VDWkb_VNSraSOcVhv75-57" value="Citicen" style="text;strokeColor=none;fillColor=none;align=left;verticalAlign=top;spacingLeft=4;spacingRight=4;overflow=hidden;rotatable=0;points=[[0,0.5],[1,0.5]];portConstraint=eastwest;fontSize=14;" parent="_VDWkb_VNSraSOcVhv75-55" vertex="1">
          <mxGeometry y="66" width="170" height="26" as="geometry" />
        </mxCell>
        <mxCell id="_VDWkb_VNSraSOcVhv75-60" value="" style="endArrow=none;dashed=1;html=1;dashPattern=1 3;strokeWidth=2;fontSize=14;exitX=0.5;exitY=0;exitDx=0;exitDy=0;" parent="WIyWlLk6GJQsqaUBKTNV-1" source="_VDWkb_VNSraSOcVhv75-55" edge="1">
          <mxGeometry width="50" height="50" relative="1" as="geometry">
            <mxPoint x="-590" y="430" as="sourcePoint" />
            <mxPoint x="-470" y="200" as="targetPoint" />
          </mxGeometry>
        </mxCell>
        <mxCell id="_VDWkb_VNSraSOcVhv75-61" value="use" style="endArrow=classic;html=1;fontSize=14;exitX=0;exitY=0.5;exitDx=0;exitDy=0;entryX=1;entryY=0.5;entryDx=0;entryDy=0;" parent="WIyWlLk6GJQsqaUBKTNV-1" source="_VDWkb_VNSraSOcVhv75-21" target="_VDWkb_VNSraSOcVhv75-56" edge="1">
          <mxGeometry width="50" height="50" relative="1" as="geometry">
            <mxPoint x="-590" y="430" as="sourcePoint" />
            <mxPoint x="-540" y="380" as="targetPoint" />
          </mxGeometry>
        </mxCell>
        <mxCell id="_VDWkb_VNSraSOcVhv75-71" value="instantiate" style="endArrow=classic;html=1;fontSize=14;exitX=0;exitY=0.5;exitDx=0;exitDy=0;entryX=1;entryY=0.5;entryDx=0;entryDy=0;" parent="WIyWlLk6GJQsqaUBKTNV-1" source="I45gT4rz-AuL1LMGK9G_-71" target="_VDWkb_VNSraSOcVhv75-67" edge="1">
          <mxGeometry width="50" height="50" relative="1" as="geometry">
            <mxPoint x="-250" y="470" as="sourcePoint" />
            <mxPoint x="-200" y="420" as="targetPoint" />
          </mxGeometry>
        </mxCell>
        <mxCell id="I45gT4rz-AuL1LMGK9G_-0" value="Person" style="swimlane;fontStyle=2;align=center;verticalAlign=top;childLayout=stackLayout;horizontal=1;startSize=26;horizontalStack=0;resizeParent=1;resizeLast=0;collapsible=1;marginBottom=0;rounded=0;shadow=0;strokeWidth=1;fontSize=14;" vertex="1" parent="WIyWlLk6GJQsqaUBKTNV-1">
          <mxGeometry x="-2130" y="-850" width="160" height="138" as="geometry">
            <mxRectangle x="230" y="140" width="160" height="26" as="alternateBounds" />
          </mxGeometry>
        </mxCell>
        <mxCell id="I45gT4rz-AuL1LMGK9G_-1" value="Name" style="text;align=left;verticalAlign=top;spacingLeft=4;spacingRight=4;overflow=hidden;rotatable=0;points=[[0,0.5],[1,0.5]];portConstraint=eastwest;fontSize=14;" vertex="1" parent="I45gT4rz-AuL1LMGK9G_-0">
          <mxGeometry y="26" width="160" height="26" as="geometry" />
        </mxCell>
        <mxCell id="I45gT4rz-AuL1LMGK9G_-2" value="Phone Number" style="text;align=left;verticalAlign=top;spacingLeft=4;spacingRight=4;overflow=hidden;rotatable=0;points=[[0,0.5],[1,0.5]];portConstraint=eastwest;rounded=0;shadow=0;html=0;fontSize=14;" vertex="1" parent="I45gT4rz-AuL1LMGK9G_-0">
          <mxGeometry y="52" width="160" height="26" as="geometry" />
        </mxCell>
        <mxCell id="I45gT4rz-AuL1LMGK9G_-3" value="Email Address" style="text;align=left;verticalAlign=top;spacingLeft=4;spacingRight=4;overflow=hidden;rotatable=0;points=[[0,0.5],[1,0.5]];portConstraint=eastwest;rounded=0;shadow=0;html=0;fontSize=14;" vertex="1" parent="I45gT4rz-AuL1LMGK9G_-0">
          <mxGeometry y="78" width="160" height="26" as="geometry" />
        </mxCell>
        <mxCell id="I45gT4rz-AuL1LMGK9G_-4" value="" style="line;html=1;strokeWidth=1;align=left;verticalAlign=middle;spacingTop=-1;spacingLeft=3;spacingRight=3;rotatable=0;labelPosition=right;points=[];portConstraint=eastwest;fontSize=14;" vertex="1" parent="I45gT4rz-AuL1LMGK9G_-0">
          <mxGeometry y="104" width="160" height="8" as="geometry" />
        </mxCell>
        <mxCell id="I45gT4rz-AuL1LMGK9G_-5" value="Purchase Parking Pass" style="text;align=left;verticalAlign=top;spacingLeft=4;spacingRight=4;overflow=hidden;rotatable=0;points=[[0,0.5],[1,0.5]];portConstraint=eastwest;fontSize=14;" vertex="1" parent="I45gT4rz-AuL1LMGK9G_-0">
          <mxGeometry y="112" width="160" height="26" as="geometry" />
        </mxCell>
        <mxCell id="I45gT4rz-AuL1LMGK9G_-6" value="Student" style="swimlane;fontStyle=0;align=center;verticalAlign=top;childLayout=stackLayout;horizontal=1;startSize=26;horizontalStack=0;resizeParent=1;resizeLast=0;collapsible=1;marginBottom=0;rounded=0;shadow=0;strokeWidth=1;fontSize=14;" vertex="1" parent="WIyWlLk6GJQsqaUBKTNV-1">
          <mxGeometry x="-2230" y="-610" width="160" height="138" as="geometry">
            <mxRectangle x="130" y="380" width="160" height="26" as="alternateBounds" />
          </mxGeometry>
        </mxCell>
        <mxCell id="I45gT4rz-AuL1LMGK9G_-7" value="Student Number" style="text;align=left;verticalAlign=top;spacingLeft=4;spacingRight=4;overflow=hidden;rotatable=0;points=[[0,0.5],[1,0.5]];portConstraint=eastwest;fontSize=14;" vertex="1" parent="I45gT4rz-AuL1LMGK9G_-6">
          <mxGeometry y="26" width="160" height="26" as="geometry" />
        </mxCell>
        <mxCell id="I45gT4rz-AuL1LMGK9G_-8" value="Average Mark" style="text;align=left;verticalAlign=top;spacingLeft=4;spacingRight=4;overflow=hidden;rotatable=0;points=[[0,0.5],[1,0.5]];portConstraint=eastwest;rounded=0;shadow=0;html=0;fontSize=14;" vertex="1" parent="I45gT4rz-AuL1LMGK9G_-6">
          <mxGeometry y="52" width="160" height="26" as="geometry" />
        </mxCell>
        <mxCell id="I45gT4rz-AuL1LMGK9G_-9" value="" style="line;html=1;strokeWidth=1;align=left;verticalAlign=middle;spacingTop=-1;spacingLeft=3;spacingRight=3;rotatable=0;labelPosition=right;points=[];portConstraint=eastwest;fontSize=14;" vertex="1" parent="I45gT4rz-AuL1LMGK9G_-6">
          <mxGeometry y="78" width="160" height="8" as="geometry" />
        </mxCell>
        <mxCell id="I45gT4rz-AuL1LMGK9G_-10" value="Is Eligible To Enroll" style="text;align=left;verticalAlign=top;spacingLeft=4;spacingRight=4;overflow=hidden;rotatable=0;points=[[0,0.5],[1,0.5]];portConstraint=eastwest;fontStyle=4;fontSize=14;" vertex="1" parent="I45gT4rz-AuL1LMGK9G_-6">
          <mxGeometry y="86" width="160" height="26" as="geometry" />
        </mxCell>
        <mxCell id="I45gT4rz-AuL1LMGK9G_-11" value="Get Seminars Taken" style="text;align=left;verticalAlign=top;spacingLeft=4;spacingRight=4;overflow=hidden;rotatable=0;points=[[0,0.5],[1,0.5]];portConstraint=eastwest;fontSize=14;" vertex="1" parent="I45gT4rz-AuL1LMGK9G_-6">
          <mxGeometry y="112" width="160" height="26" as="geometry" />
        </mxCell>
        <mxCell id="I45gT4rz-AuL1LMGK9G_-12" value="" style="endArrow=block;endSize=10;endFill=0;shadow=0;strokeWidth=1;rounded=0;edgeStyle=elbowEdgeStyle;elbow=vertical;fontSize=14;" edge="1" parent="WIyWlLk6GJQsqaUBKTNV-1" source="I45gT4rz-AuL1LMGK9G_-6" target="I45gT4rz-AuL1LMGK9G_-0">
          <mxGeometry width="160" relative="1" as="geometry">
            <mxPoint x="-2150" y="-767" as="sourcePoint" />
            <mxPoint x="-2150" y="-767" as="targetPoint" />
          </mxGeometry>
        </mxCell>
        <mxCell id="I45gT4rz-AuL1LMGK9G_-13" value="Professor" style="swimlane;fontStyle=0;align=center;verticalAlign=top;childLayout=stackLayout;horizontal=1;startSize=26;horizontalStack=0;resizeParent=1;resizeLast=0;collapsible=1;marginBottom=0;rounded=0;shadow=0;strokeWidth=1;fontSize=14;" vertex="1" parent="WIyWlLk6GJQsqaUBKTNV-1">
          <mxGeometry x="-2020" y="-610" width="160" height="70" as="geometry">
            <mxRectangle x="340" y="380" width="170" height="26" as="alternateBounds" />
          </mxGeometry>
        </mxCell>
        <mxCell id="I45gT4rz-AuL1LMGK9G_-14" value="Salary" style="text;align=left;verticalAlign=top;spacingLeft=4;spacingRight=4;overflow=hidden;rotatable=0;points=[[0,0.5],[1,0.5]];portConstraint=eastwest;fontSize=14;" vertex="1" parent="I45gT4rz-AuL1LMGK9G_-13">
          <mxGeometry y="26" width="160" height="26" as="geometry" />
        </mxCell>
        <mxCell id="I45gT4rz-AuL1LMGK9G_-15" value="" style="line;html=1;strokeWidth=1;align=left;verticalAlign=middle;spacingTop=-1;spacingLeft=3;spacingRight=3;rotatable=0;labelPosition=right;points=[];portConstraint=eastwest;fontSize=14;" vertex="1" parent="I45gT4rz-AuL1LMGK9G_-13">
          <mxGeometry y="52" width="160" height="8" as="geometry" />
        </mxCell>
        <mxCell id="I45gT4rz-AuL1LMGK9G_-16" value="" style="endArrow=block;endSize=10;endFill=0;shadow=0;strokeWidth=1;rounded=0;edgeStyle=elbowEdgeStyle;elbow=vertical;fontSize=14;" edge="1" parent="WIyWlLk6GJQsqaUBKTNV-1" source="I45gT4rz-AuL1LMGK9G_-13" target="I45gT4rz-AuL1LMGK9G_-0">
          <mxGeometry width="160" relative="1" as="geometry">
            <mxPoint x="-2140" y="-597" as="sourcePoint" />
            <mxPoint x="-2040" y="-699" as="targetPoint" />
          </mxGeometry>
        </mxCell>
        <mxCell id="I45gT4rz-AuL1LMGK9G_-17" value="Address" style="swimlane;fontStyle=0;align=center;verticalAlign=top;childLayout=stackLayout;horizontal=1;startSize=26;horizontalStack=0;resizeParent=1;resizeLast=0;collapsible=1;marginBottom=0;rounded=0;shadow=0;strokeWidth=1;fontSize=14;" vertex="1" parent="WIyWlLk6GJQsqaUBKTNV-1">
          <mxGeometry x="-1842" y="-850" width="160" height="216" as="geometry">
            <mxRectangle x="550" y="140" width="160" height="26" as="alternateBounds" />
          </mxGeometry>
        </mxCell>
        <mxCell id="I45gT4rz-AuL1LMGK9G_-18" value="Street" style="text;align=left;verticalAlign=top;spacingLeft=4;spacingRight=4;overflow=hidden;rotatable=0;points=[[0,0.5],[1,0.5]];portConstraint=eastwest;fontSize=14;" vertex="1" parent="I45gT4rz-AuL1LMGK9G_-17">
          <mxGeometry y="26" width="160" height="26" as="geometry" />
        </mxCell>
        <mxCell id="I45gT4rz-AuL1LMGK9G_-19" value="City" style="text;align=left;verticalAlign=top;spacingLeft=4;spacingRight=4;overflow=hidden;rotatable=0;points=[[0,0.5],[1,0.5]];portConstraint=eastwest;rounded=0;shadow=0;html=0;fontSize=14;" vertex="1" parent="I45gT4rz-AuL1LMGK9G_-17">
          <mxGeometry y="52" width="160" height="26" as="geometry" />
        </mxCell>
        <mxCell id="I45gT4rz-AuL1LMGK9G_-20" value="State" style="text;align=left;verticalAlign=top;spacingLeft=4;spacingRight=4;overflow=hidden;rotatable=0;points=[[0,0.5],[1,0.5]];portConstraint=eastwest;rounded=0;shadow=0;html=0;fontSize=14;" vertex="1" parent="I45gT4rz-AuL1LMGK9G_-17">
          <mxGeometry y="78" width="160" height="26" as="geometry" />
        </mxCell>
        <mxCell id="I45gT4rz-AuL1LMGK9G_-21" value="Postal Code" style="text;align=left;verticalAlign=top;spacingLeft=4;spacingRight=4;overflow=hidden;rotatable=0;points=[[0,0.5],[1,0.5]];portConstraint=eastwest;rounded=0;shadow=0;html=0;fontSize=14;" vertex="1" parent="I45gT4rz-AuL1LMGK9G_-17">
          <mxGeometry y="104" width="160" height="26" as="geometry" />
        </mxCell>
        <mxCell id="I45gT4rz-AuL1LMGK9G_-22" value="Country" style="text;align=left;verticalAlign=top;spacingLeft=4;spacingRight=4;overflow=hidden;rotatable=0;points=[[0,0.5],[1,0.5]];portConstraint=eastwest;rounded=0;shadow=0;html=0;fontSize=14;" vertex="1" parent="I45gT4rz-AuL1LMGK9G_-17">
          <mxGeometry y="130" width="160" height="26" as="geometry" />
        </mxCell>
        <mxCell id="I45gT4rz-AuL1LMGK9G_-23" value="" style="line;html=1;strokeWidth=1;align=left;verticalAlign=middle;spacingTop=-1;spacingLeft=3;spacingRight=3;rotatable=0;labelPosition=right;points=[];portConstraint=eastwest;fontSize=14;" vertex="1" parent="I45gT4rz-AuL1LMGK9G_-17">
          <mxGeometry y="156" width="160" height="8" as="geometry" />
        </mxCell>
        <mxCell id="I45gT4rz-AuL1LMGK9G_-24" value="Validate" style="text;align=left;verticalAlign=top;spacingLeft=4;spacingRight=4;overflow=hidden;rotatable=0;points=[[0,0.5],[1,0.5]];portConstraint=eastwest;fontSize=14;" vertex="1" parent="I45gT4rz-AuL1LMGK9G_-17">
          <mxGeometry y="164" width="160" height="26" as="geometry" />
        </mxCell>
        <mxCell id="I45gT4rz-AuL1LMGK9G_-25" value="Output As Label" style="text;align=left;verticalAlign=top;spacingLeft=4;spacingRight=4;overflow=hidden;rotatable=0;points=[[0,0.5],[1,0.5]];portConstraint=eastwest;fontSize=14;" vertex="1" parent="I45gT4rz-AuL1LMGK9G_-17">
          <mxGeometry y="190" width="160" height="26" as="geometry" />
        </mxCell>
        <mxCell id="I45gT4rz-AuL1LMGK9G_-26" value="" style="endArrow=open;shadow=0;strokeWidth=1;rounded=0;endFill=1;edgeStyle=elbowEdgeStyle;elbow=vertical;fontSize=14;" edge="1" parent="WIyWlLk6GJQsqaUBKTNV-1" source="I45gT4rz-AuL1LMGK9G_-0" target="I45gT4rz-AuL1LMGK9G_-17">
          <mxGeometry x="0.5" y="41" relative="1" as="geometry">
            <mxPoint x="-1970" y="-778" as="sourcePoint" />
            <mxPoint x="-1810" y="-778" as="targetPoint" />
            <mxPoint x="-40" y="32" as="offset" />
          </mxGeometry>
        </mxCell>
        <mxCell id="I45gT4rz-AuL1LMGK9G_-27" value="0..1" style="resizable=0;align=left;verticalAlign=bottom;labelBackgroundColor=none;fontSize=14;" connectable="0" vertex="1" parent="I45gT4rz-AuL1LMGK9G_-26">
          <mxGeometry x="-1" relative="1" as="geometry">
            <mxPoint y="4" as="offset" />
          </mxGeometry>
        </mxCell>
        <mxCell id="I45gT4rz-AuL1LMGK9G_-28" value="1" style="resizable=0;align=right;verticalAlign=bottom;labelBackgroundColor=none;fontSize=14;" connectable="0" vertex="1" parent="I45gT4rz-AuL1LMGK9G_-26">
          <mxGeometry x="1" relative="1" as="geometry">
            <mxPoint x="-7" y="4" as="offset" />
          </mxGeometry>
        </mxCell>
        <mxCell id="I45gT4rz-AuL1LMGK9G_-29" value="lives at" style="text;html=1;resizable=0;points=[];;align=center;verticalAlign=middle;labelBackgroundColor=none;rounded=0;shadow=0;strokeWidth=1;fontSize=14;" vertex="1" connectable="0" parent="I45gT4rz-AuL1LMGK9G_-26">
          <mxGeometry x="0.5" y="49" relative="1" as="geometry">
            <mxPoint x="-38" y="40" as="offset" />
          </mxGeometry>
        </mxCell>
        <mxCell id="I45gT4rz-AuL1LMGK9G_-37" value="example" style="swimlane;fontStyle=1;align=center;verticalAlign=top;childLayout=stackLayout;horizontal=1;startSize=26;horizontalStack=0;resizeParent=1;resizeLast=0;collapsible=1;marginBottom=0;rounded=0;shadow=0;strokeWidth=1;fontSize=14;" vertex="1" parent="WIyWlLk6GJQsqaUBKTNV-1">
          <mxGeometry x="480" y="-650" width="160" height="138" as="geometry">
            <mxRectangle x="130" y="380" width="160" height="26" as="alternateBounds" />
          </mxGeometry>
        </mxCell>
        <mxCell id="I45gT4rz-AuL1LMGK9G_-38" value="- field" style="text;align=left;verticalAlign=top;spacingLeft=4;spacingRight=4;overflow=hidden;rotatable=0;points=[[0,0.5],[1,0.5]];portConstraint=eastwest;fontSize=14;" vertex="1" parent="I45gT4rz-AuL1LMGK9G_-37">
          <mxGeometry y="26" width="160" height="26" as="geometry" />
        </mxCell>
        <mxCell id="I45gT4rz-AuL1LMGK9G_-39" value="" style="line;html=1;strokeWidth=1;align=left;verticalAlign=middle;spacingTop=-1;spacingLeft=3;spacingRight=3;rotatable=0;labelPosition=right;points=[];portConstraint=eastwest;fontSize=14;" vertex="1" parent="I45gT4rz-AuL1LMGK9G_-37">
          <mxGeometry y="52" width="160" height="8" as="geometry" />
        </mxCell>
        <mxCell id="I45gT4rz-AuL1LMGK9G_-40" value="+ void function" style="text;align=left;verticalAlign=top;spacingLeft=4;spacingRight=4;overflow=hidden;rotatable=0;points=[[0,0.5],[1,0.5]];portConstraint=eastwest;fontStyle=4;fontSize=14;" vertex="1" parent="I45gT4rz-AuL1LMGK9G_-37">
          <mxGeometry y="60" width="160" height="26" as="geometry" />
        </mxCell>
        <mxCell id="I45gT4rz-AuL1LMGK9G_-41" value="implements" style="endArrow=block;endSize=10;endFill=0;shadow=0;strokeWidth=1;rounded=0;edgeStyle=elbowEdgeStyle;elbow=vertical;exitX=0.5;exitY=0;exitDx=0;exitDy=0;entryX=0.453;entryY=1.385;entryDx=0;entryDy=0;entryPerimeter=0;fontSize=14;" edge="1" parent="WIyWlLk6GJQsqaUBKTNV-1" source="_VDWkb_VNSraSOcVhv75-50" target="_VDWkb_VNSraSOcVhv75-46">
          <mxGeometry width="160" relative="1" as="geometry">
            <mxPoint x="-740" y="760" as="sourcePoint" />
            <mxPoint x="-740" y="690.0000000000002" as="targetPoint" />
          </mxGeometry>
        </mxCell>
        <mxCell id="I45gT4rz-AuL1LMGK9G_-42" value="(packager)&lt;br style=&quot;font-size: 14px;&quot;&gt;gamelogic" style="rounded=1;whiteSpace=wrap;html=1;fontSize=14;" vertex="1" parent="WIyWlLk6GJQsqaUBKTNV-1">
          <mxGeometry x="565" y="140" width="115" height="60" as="geometry" />
        </mxCell>
        <mxCell id="I45gT4rz-AuL1LMGK9G_-45" value="GameLoop" style="swimlane;fontStyle=1;align=center;verticalAlign=top;childLayout=stackLayout;horizontal=1;startSize=26;horizontalStack=0;resizeParent=1;resizeLast=0;collapsible=1;marginBottom=0;rounded=0;shadow=0;strokeWidth=1;fontSize=14;" vertex="1" parent="WIyWlLk6GJQsqaUBKTNV-1">
          <mxGeometry x="680" y="-657" width="160" height="164" as="geometry">
            <mxRectangle x="130" y="380" width="160" height="26" as="alternateBounds" />
          </mxGeometry>
        </mxCell>
        <mxCell id="I45gT4rz-AuL1LMGK9G_-46" value="- field Player" style="text;align=left;verticalAlign=top;spacingLeft=4;spacingRight=4;overflow=hidden;rotatable=0;points=[[0,0.5],[1,0.5]];portConstraint=eastwest;fontSize=14;" vertex="1" parent="I45gT4rz-AuL1LMGK9G_-45">
          <mxGeometry y="26" width="160" height="26" as="geometry" />
        </mxCell>
        <mxCell id="I45gT4rz-AuL1LMGK9G_-52" value="+ void function" style="text;align=left;verticalAlign=top;spacingLeft=4;spacingRight=4;overflow=hidden;rotatable=0;points=[[0,0.5],[1,0.5]];portConstraint=eastwest;fontStyle=4;fontSize=14;" vertex="1" parent="I45gT4rz-AuL1LMGK9G_-45">
          <mxGeometry y="52" width="160" height="26" as="geometry" />
        </mxCell>
        <mxCell id="I45gT4rz-AuL1LMGK9G_-47" value="" style="line;html=1;strokeWidth=1;align=left;verticalAlign=middle;spacingTop=-1;spacingLeft=3;spacingRight=3;rotatable=0;labelPosition=right;points=[];portConstraint=eastwest;fontSize=14;" vertex="1" parent="I45gT4rz-AuL1LMGK9G_-45">
          <mxGeometry y="78" width="160" height="8" as="geometry" />
        </mxCell>
        <mxCell id="I45gT4rz-AuL1LMGK9G_-48" value="+ void function" style="text;align=left;verticalAlign=top;spacingLeft=4;spacingRight=4;overflow=hidden;rotatable=0;points=[[0,0.5],[1,0.5]];portConstraint=eastwest;fontStyle=4;fontSize=14;" vertex="1" parent="I45gT4rz-AuL1LMGK9G_-45">
          <mxGeometry y="86" width="160" height="26" as="geometry" />
        </mxCell>
        <mxCell id="I45gT4rz-AuL1LMGK9G_-50" value="+ void function" style="text;align=left;verticalAlign=top;spacingLeft=4;spacingRight=4;overflow=hidden;rotatable=0;points=[[0,0.5],[1,0.5]];portConstraint=eastwest;fontStyle=4;fontSize=14;" vertex="1" parent="I45gT4rz-AuL1LMGK9G_-45">
          <mxGeometry y="112" width="160" height="26" as="geometry" />
        </mxCell>
        <mxCell id="I45gT4rz-AuL1LMGK9G_-51" value="+ void function" style="text;align=left;verticalAlign=top;spacingLeft=4;spacingRight=4;overflow=hidden;rotatable=0;points=[[0,0.5],[1,0.5]];portConstraint=eastwest;fontStyle=4;fontSize=14;" vertex="1" parent="I45gT4rz-AuL1LMGK9G_-45">
          <mxGeometry y="138" width="160" height="26" as="geometry" />
        </mxCell>
        <mxCell id="I45gT4rz-AuL1LMGK9G_-53" value="" style="endArrow=none;dashed=1;html=1;dashPattern=1 3;strokeWidth=2;fontSize=14;exitX=0.5;exitY=0;exitDx=0;exitDy=0;" edge="1" parent="WIyWlLk6GJQsqaUBKTNV-1" source="I45gT4rz-AuL1LMGK9G_-70">
          <mxGeometry width="50" height="50" relative="1" as="geometry">
            <mxPoint x="-440" y="430" as="sourcePoint" />
            <mxPoint x="-470" y="200" as="targetPoint" />
            <Array as="points">
              <mxPoint x="-340" y="260" />
            </Array>
          </mxGeometry>
        </mxCell>
        <mxCell id="I45gT4rz-AuL1LMGK9G_-54" value="" style="endArrow=none;dashed=1;html=1;dashPattern=1 3;strokeWidth=2;fontSize=14;entryX=0.5;entryY=0;entryDx=0;entryDy=0;exitX=0.5;exitY=1;exitDx=0;exitDy=0;" edge="1" parent="WIyWlLk6GJQsqaUBKTNV-1" source="_VDWkb_VNSraSOcVhv75-8" target="_VDWkb_VNSraSOcVhv75-30">
          <mxGeometry width="50" height="50" relative="1" as="geometry">
            <mxPoint x="-210" y="-120" as="sourcePoint" />
            <mxPoint x="-100" y="40" as="targetPoint" />
          </mxGeometry>
        </mxCell>
        <mxCell id="I45gT4rz-AuL1LMGK9G_-56" value="" style="endArrow=none;dashed=1;html=1;dashPattern=1 3;strokeWidth=2;fontSize=14;entryX=0.5;entryY=0;entryDx=0;entryDy=0;exitX=0.5;exitY=1;exitDx=0;exitDy=0;" edge="1" parent="WIyWlLk6GJQsqaUBKTNV-1" source="_VDWkb_VNSraSOcVhv75-28" target="I45gT4rz-AuL1LMGK9G_-42">
          <mxGeometry width="50" height="50" relative="1" as="geometry">
            <mxPoint x="-150" y="410" as="sourcePoint" />
            <mxPoint x="-100" y="360" as="targetPoint" />
          </mxGeometry>
        </mxCell>
        <mxCell id="I45gT4rz-AuL1LMGK9G_-58" value="" style="endArrow=none;dashed=1;html=1;dashPattern=1 3;strokeWidth=2;fontSize=14;entryX=0.5;entryY=0;entryDx=0;entryDy=0;exitX=0.5;exitY=1;exitDx=0;exitDy=0;" edge="1" parent="WIyWlLk6GJQsqaUBKTNV-1" source="_VDWkb_VNSraSOcVhv75-8" target="_VDWkb_VNSraSOcVhv75-29">
          <mxGeometry width="50" height="50" relative="1" as="geometry">
            <mxPoint x="-540" y="-110" as="sourcePoint" />
            <mxPoint x="-490" y="-160" as="targetPoint" />
          </mxGeometry>
        </mxCell>
        <mxCell id="I45gT4rz-AuL1LMGK9G_-60" value="(packager)&lt;br style=&quot;font-size: 14px&quot;&gt;characters" style="rounded=1;whiteSpace=wrap;html=1;fontSize=14;" vertex="1" parent="WIyWlLk6GJQsqaUBKTNV-1">
          <mxGeometry x="-270" y="270" width="120" height="60" as="geometry" />
        </mxCell>
        <mxCell id="I45gT4rz-AuL1LMGK9G_-61" value="" style="endArrow=none;dashed=1;html=1;dashPattern=1 3;strokeWidth=2;fontSize=14;exitX=0.5;exitY=0;exitDx=0;exitDy=0;entryX=0.5;entryY=1;entryDx=0;entryDy=0;" edge="1" parent="WIyWlLk6GJQsqaUBKTNV-1" source="_VDWkb_VNSraSOcVhv75-50" target="I45gT4rz-AuL1LMGK9G_-60">
          <mxGeometry width="50" height="50" relative="1" as="geometry">
            <mxPoint x="-310" y="510" as="sourcePoint" />
            <mxPoint x="-260" y="460" as="targetPoint" />
          </mxGeometry>
        </mxCell>
        <mxCell id="I45gT4rz-AuL1LMGK9G_-62" value="" style="endArrow=none;dashed=1;html=1;dashPattern=1 3;strokeWidth=2;fontSize=14;exitX=0.5;exitY=0;exitDx=0;exitDy=0;entryX=0.5;entryY=1;entryDx=0;entryDy=0;" edge="1" parent="WIyWlLk6GJQsqaUBKTNV-1" source="I45gT4rz-AuL1LMGK9G_-60" target="_VDWkb_VNSraSOcVhv75-15">
          <mxGeometry width="50" height="50" relative="1" as="geometry">
            <mxPoint x="-310" y="510" as="sourcePoint" />
            <mxPoint x="-260" y="460" as="targetPoint" />
          </mxGeometry>
        </mxCell>
        <mxCell id="I45gT4rz-AuL1LMGK9G_-70" value="CharacterFactory" style="swimlane;fontStyle=1;childLayout=stackLayout;horizontal=1;startSize=40;horizontalStack=0;resizeParent=1;resizeParentMax=0;resizeLast=0;collapsible=1;marginBottom=0;fontSize=14;" vertex="1" parent="WIyWlLk6GJQsqaUBKTNV-1">
          <mxGeometry x="-290" y="710" width="340" height="126" as="geometry">
            <mxRectangle x="-585" y="270" width="100" height="40" as="alternateBounds" />
          </mxGeometry>
        </mxCell>
        <mxCell id="I45gT4rz-AuL1LMGK9G_-71" value=" - int numberOfPlayer" style="text;fillColor=none;align=left;verticalAlign=top;spacingLeft=4;spacingRight=4;overflow=hidden;rotatable=0;points=[[0,0.5],[1,0.5]];portConstraint=eastwest;fontSize=14;strokeColor=#000000;" vertex="1" parent="I45gT4rz-AuL1LMGK9G_-70">
          <mxGeometry y="40" width="340" height="30" as="geometry" />
        </mxCell>
        <mxCell id="I45gT4rz-AuL1LMGK9G_-72" value="+ void setNumberOfPlayer(String password, value)&#xa;" style="text;fillColor=none;align=left;verticalAlign=top;spacingLeft=4;spacingRight=4;overflow=hidden;rotatable=0;points=[[0,0.5],[1,0.5]];portConstraint=eastwest;fontSize=14;" vertex="1" parent="I45gT4rz-AuL1LMGK9G_-70">
          <mxGeometry y="70" width="340" height="26" as="geometry" />
        </mxCell>
        <mxCell id="I45gT4rz-AuL1LMGK9G_-75" value="&lt;span style=&quot;color: rgb(0 , 0 , 0) ; font-family: &amp;#34;helvetica&amp;#34; ; font-size: 14px ; font-style: normal ; font-weight: 400 ; letter-spacing: normal ; text-align: left ; text-indent: 0px ; text-transform: none ; word-spacing: 0px ; background-color: rgb(248 , 249 , 250) ; display: inline ; float: none&quot;&gt;&amp;nbsp;+ void characterBuilder(ArrayList players)&lt;/span&gt;" style="text;whiteSpace=wrap;html=1;fontSize=14;" vertex="1" parent="I45gT4rz-AuL1LMGK9G_-70">
          <mxGeometry y="96" width="340" height="30" as="geometry" />
        </mxCell>
        <mxCell id="I45gT4rz-AuL1LMGK9G_-77" value="(packager)&lt;br style=&quot;font-size: 14px&quot;&gt;menu" style="rounded=1;whiteSpace=wrap;html=1;fontSize=14;" vertex="1" parent="WIyWlLk6GJQsqaUBKTNV-1">
          <mxGeometry x="-1990" y="110" width="120" height="60" as="geometry" />
        </mxCell>
        <mxCell id="I45gT4rz-AuL1LMGK9G_-78" value="(packager)&lt;br style=&quot;font-size: 14px&quot;&gt;console" style="rounded=1;whiteSpace=wrap;html=1;fontSize=14;" vertex="1" parent="WIyWlLk6GJQsqaUBKTNV-1">
          <mxGeometry x="-2520" y="110" width="120" height="60" as="geometry" />
        </mxCell>
        <mxCell id="I45gT4rz-AuL1LMGK9G_-81" value="" style="endArrow=none;dashed=1;html=1;dashPattern=1 3;strokeWidth=2;fontSize=14;exitX=0.5;exitY=1;exitDx=0;exitDy=0;entryX=0.5;entryY=0;entryDx=0;entryDy=0;" edge="1" parent="WIyWlLk6GJQsqaUBKTNV-1" source="_VDWkb_VNSraSOcVhv75-29" target="I45gT4rz-AuL1LMGK9G_-78">
          <mxGeometry width="50" height="50" relative="1" as="geometry">
            <mxPoint x="-1890" y="240" as="sourcePoint" />
            <mxPoint x="-1840" y="190" as="targetPoint" />
          </mxGeometry>
        </mxCell>
        <mxCell id="I45gT4rz-AuL1LMGK9G_-82" value="" style="endArrow=none;dashed=1;html=1;dashPattern=1 3;strokeWidth=2;fontSize=14;exitX=0.5;exitY=1;exitDx=0;exitDy=0;entryX=0.5;entryY=0;entryDx=0;entryDy=0;" edge="1" parent="WIyWlLk6GJQsqaUBKTNV-1" source="_VDWkb_VNSraSOcVhv75-29" target="I45gT4rz-AuL1LMGK9G_-77">
          <mxGeometry width="50" height="50" relative="1" as="geometry">
            <mxPoint x="-1890" y="240" as="sourcePoint" />
            <mxPoint x="-1840" y="190" as="targetPoint" />
          </mxGeometry>
        </mxCell>
        <mxCell id="I45gT4rz-AuL1LMGK9G_-88" value="Colors&#xa;&lt;interface&gt;" style="swimlane;fontStyle=1;childLayout=stackLayout;horizontal=1;startSize=40;horizontalStack=0;resizeParent=1;resizeParentMax=0;resizeLast=0;collapsible=1;marginBottom=0;fontSize=14;" vertex="1" parent="WIyWlLk6GJQsqaUBKTNV-1">
          <mxGeometry x="-2780" y="260" width="225" height="90" as="geometry">
            <mxRectangle x="-585" y="270" width="100" height="40" as="alternateBounds" />
          </mxGeometry>
        </mxCell>
        <mxCell id="I45gT4rz-AuL1LMGK9G_-89" value="It contains a box of color.&#xa;Used to have colorful console." style="text;fillColor=none;align=left;verticalAlign=top;spacingLeft=4;spacingRight=4;overflow=hidden;rotatable=0;points=[[0,0.5],[1,0.5]];portConstraint=eastwest;fontSize=14;strokeColor=#000000;" vertex="1" parent="I45gT4rz-AuL1LMGK9G_-88">
          <mxGeometry y="40" width="225" height="50" as="geometry" />
        </mxCell>
        <mxCell id="I45gT4rz-AuL1LMGK9G_-93" value="" style="endArrow=none;dashed=1;html=1;dashPattern=1 3;strokeWidth=2;fontSize=14;exitX=0.5;exitY=0;exitDx=0;exitDy=0;entryX=0.5;entryY=1;entryDx=0;entryDy=0;" edge="1" parent="WIyWlLk6GJQsqaUBKTNV-1" source="I45gT4rz-AuL1LMGK9G_-88" target="I45gT4rz-AuL1LMGK9G_-78">
          <mxGeometry width="50" height="50" relative="1" as="geometry">
            <mxPoint x="-2160" y="310" as="sourcePoint" />
            <mxPoint x="-2110" y="260" as="targetPoint" />
          </mxGeometry>
        </mxCell>
      </root>
    </mxGraphModel>
  </diagram>
</mxfile>
